<?xml version="1.0" standalone="no"?>
<!DOCTYPE svg PUBLIC "-//W3C//DTD SVG 20010904//EN"
 "http://www.w3.org/TR/2001/REC-SVG-20010904/DTD/svg10.dtd">
<svg version="1.0" xmlns="http://www.w3.org/2000/svg"
 width="1200.000000pt" height="1200.000000pt" viewBox="0 0 1200.000000 1200.000000"
 preserveAspectRatio="xMidYMid meet">
<metadata>
Created by potrace 1.16, written by Peter Selinger 2001-2019
</metadata>
<g transform="translate(0.000000,1200.000000) scale(0.100000,-0.100000)"
fill="#1fa67a" stroke="none">
<path d="M4055 11573 c-173 -50 -416 -160 -570 -259 -469 -299 -787 -746 -916
-1292 -66 -278 -66 -659 1 -966 11 -49 22 -91 24 -93 4 -4 284 56 359 77 20 6
37 14 37 18 0 4 -10 57 -21 117 -24 126 -34 433 -19 550 56 426 258 810 568
1082 166 144 387 273 607 353 50 19 94 37 99 41 8 7 -98 367 -112 380 -4 4
-29 0 -57 -8z"/>
<path d="M7965 11403 c-31 -104 -58 -192 -59 -196 0 -5 40 -23 89 -41 145 -53
228 -91 341 -157 178 -104 312 -214 441 -364 204 -235 322 -478 389 -800 24
-116 27 -151 27 -330 0 -160 -4 -223 -21 -315 -11 -64 -24 -123 -27 -131 -5
-13 9 -20 72 -37 103 -27 324 -75 328 -70 6 6 44 202 57 293 8 55 13 176 12
310 -1 244 -17 362 -75 570 -170 601 -612 1094 -1209 1348 -88 37 -168 66
-291 103 -13 3 -27 -31 -74 -183z"/>
<path d="M7720 10625 c-33 -102 -60 -190 -60 -195 0 -5 43 -29 96 -54 167 -79
299 -186 406 -331 69 -91 105 -159 141 -265 48 -140 60 -228 55 -401 l-5 -157
194 -42 c106 -24 196 -41 199 -38 14 15 34 198 34 323 0 229 -40 413 -131 604
-126 266 -311 464 -567 609 -98 55 -267 132 -291 132 -6 0 -37 -83 -71 -185z"/>
<path d="M4255 10776 c-235 -91 -473 -269 -619 -460 -126 -165 -225 -391 -262
-596 -29 -161 -19 -513 16 -569 6 -11 48 -5 204 30 184 40 197 44 192 63 -13
58 -17 211 -7 296 16 127 44 226 97 339 53 114 119 203 216 296 99 96 155 135
281 196 96 47 106 54 101 74 -3 13 -30 96 -59 186 -61 188 -57 185 -160 145z"/>
<path d="M4704 9462 c-83 -48 -225 -130 -317 -182 -91 -52 -166 -98 -167 -102
0 -6 32 -63 399 -697 99 -173 181 -317 181 -321 0 -4 -35 -34 -77 -67 -290
-226 -501 -520 -614 -853 -19 -55 -38 -100 -43 -100 -10 0 -205 70 -681 244
-231 84 -342 120 -346 112 -4 -6 -62 -163 -129 -350 -79 -216 -119 -340 -112
-345 6 -3 283 -105 616 -226 l606 -220 -2 -255 -3 -255 -618 -3 -617 -2 2
-373 3 -372 618 -3 617 -2 0 -275 0 -275 -27 -11 c-48 -19 -1147 -421 -1165
-426 -10 -3 -18 -10 -18 -15 0 -10 218 -610 241 -665 l14 -32 535 195 c294
107 546 197 560 200 23 4 30 -4 73 -83 78 -144 174 -270 307 -404 191 -191
379 -320 610 -418 296 -125 586 -170 995 -157 280 10 400 29 618 98 105 33
335 141 432 203 282 180 517 435 671 729 16 31 34 56 39 56 6 0 244 -85 530
-190 286 -104 523 -186 527 -182 3 4 63 161 131 350 l125 343 -27 11 c-40 15
-497 183 -666 243 -82 30 -222 81 -310 113 l-160 59 -3 266 -2 267 595 0 595
0 0 375 0 375 -592 2 -593 3 0 258 0 259 535 194 c294 107 554 201 578 210 23
9 42 22 42 29 0 17 -239 677 -249 686 -3 4 -152 -47 -331 -112 -415 -153 -633
-230 -635 -227 -1 2 -19 53 -39 113 -70 207 -202 429 -363 610 -74 83 -203
201 -273 249 -17 12 -29 28 -27 36 3 8 135 242 296 519 160 277 291 507 291
510 0 3 -28 21 -63 40 -34 19 -173 99 -309 178 -136 79 -254 146 -261 149 -10
4 -34 -29 -80 -108 -334 -578 -568 -982 -570 -983 -1 -1 -51 7 -112 18 -97 18
-150 21 -440 21 -275 1 -348 -2 -438 -17 -60 -10 -110 -17 -111 -15 -2 2 -37
62 -78 133 -314 547 -552 955 -557 955 -3 0 -74 -39 -157 -88z m1474 -1497
c117 -56 194 -149 222 -267 6 -28 10 -681 10 -1811 l0 -1767 44 -54 c178 -219
165 -524 -31 -728 -248 -256 -659 -215 -855 87 -125 191 -108 454 41 643 l41
51 2 1793 3 1793 32 65 c72 146 197 228 348 230 61 0 81 -5 143 -35z m-968
-1345 l0 -310 -325 0 -325 0 0 310 0 310 325 0 325 0 0 -310z m2320 0 l0 -310
-325 0 -325 0 0 310 0 310 325 0 325 0 0 -310z m-2320 -1070 l0 -310 -325 0
-325 0 0 310 0 310 325 0 325 0 0 -310z m2320 0 l0 -310 -325 0 -325 0 0 310
0 310 325 0 325 0 0 -310z m-2320 -1090 l0 -310 -325 0 -325 0 0 303 c0 167 3
307 7 310 3 4 150 7 325 7 l318 0 0 -310z m2320 0 l0 -310 -325 0 -325 0 0
303 c0 167 3 307 7 310 3 4 150 7 325 7 l318 0 0 -310z"/>
<path d="M5952 7779 c-25 -12 -55 -39 -70 -62 l-27 -41 -3 -1823 -2 -1824 -55
-54 c-33 -32 -67 -78 -83 -112 -23 -50 -27 -71 -27 -148 0 -109 20 -159 92
-236 55 -59 114 -92 195 -108 143 -30 302 51 375 191 25 48 28 63 28 153 0
123 -20 171 -107 258 l-58 59 0 864 0 864 -54 0 c-115 0 -156 24 -156 90 0 55
25 77 92 84 29 3 67 4 83 3 l30 -2 3 103 3 102 -76 0 c-87 0 -108 8 -130 50
-19 37 -11 74 22 100 21 16 41 20 104 20 l79 0 0 100 0 100 -57 0 c-113 0
-153 24 -153 90 0 67 38 90 146 90 l64 0 0 100 0 100 -79 0 c-63 0 -83 4 -103
20 -32 25 -40 66 -22 103 19 36 50 47 135 47 l70 0 -3 103 -3 102 -45 1 c-108
2 -121 5 -140 24 -30 30 -27 90 6 121 22 21 35 24 102 25 l77 0 3 107 c2 89
-1 115 -16 151 -42 93 -149 131 -240 85z m198 -3067 l0 -739 44 -31 c90 -65
140 -185 116 -280 -22 -90 -78 -164 -155 -205 -53 -29 -193 -31 -242 -4 -98
53 -153 135 -161 238 -7 107 29 183 122 256 l46 36 0 733 0 734 115 0 115 0 0
-738z"/>
<path d="M11563 6920 c-49 -16 -104 -87 -143 -186 -42 -109 -66 -136 -117
-132 -69 6 -95 85 -58 182 24 62 16 78 -37 74 -40 -3 -45 -7 -66 -48 -20 -39
-23 -56 -19 -122 3 -64 9 -85 33 -124 37 -59 90 -89 159 -88 102 1 155 48 211
187 45 111 68 139 118 140 90 2 126 -113 74 -235 -26 -61 -20 -78 30 -78 71 0
107 71 101 202 -8 140 -79 226 -195 234 -32 2 -73 -1 -91 -6z"/>
<path d="M495 6829 c-208 -53 -325 -87 -333 -98 -8 -10 -12 -37 -10 -71 4 -64
-20 -52 271 -136 109 -32 194 -60 190 -64 -4 -4 -107 -31 -228 -59 -246 -57
-255 -62 -255 -137 0 -34 5 -47 22 -58 33 -20 646 -218 666 -214 22 4 38 62
25 91 -9 18 -50 34 -254 95 -134 40 -251 76 -259 79 -8 3 95 32 230 65 135 32
256 64 270 71 20 10 26 21 28 58 2 29 -2 50 -10 56 -7 6 -127 43 -266 83 -139
40 -251 74 -249 76 2 2 113 28 247 59 135 31 255 60 268 65 21 9 23 16 20 63
-3 47 -5 52 -28 54 -14 2 -169 -34 -345 -78z"/>
<path d="M11800 6413 c-158 -59 -226 -89 -251 -110 l-30 -26 -17 24 c-46 67
-104 94 -182 87 -69 -7 -114 -39 -146 -103 -23 -47 -27 -71 -31 -177 -4 -97
-2 -127 9 -142 14 -18 36 -19 351 -24 l336 -5 11 29 c12 31 5 74 -13 86 -7 4
-74 8 -149 8 l-138 0 0 35 c0 80 36 110 198 166 92 32 122 56 122 96 0 51 -26
72 -70 56z m-398 -164 c28 -15 48 -69 48 -129 l0 -50 -101 0 -101 0 4 71 c3
63 7 74 31 95 30 26 84 32 119 13z"/>
<path d="M725 5913 c-22 -2 -152 -12 -290 -24 -137 -11 -256 -22 -262 -24 -15
-5 -17 -83 -4 -104 7 -11 25 -12 82 -8 41 4 193 16 338 27 145 12 268 23 273
26 9 6 11 75 2 98 -6 16 -37 18 -139 9z"/>
<path d="M11143 5842 c-7 -5 -21 -79 -34 -185 -20 -158 -21 -179 -8 -193 11
-10 108 -26 338 -55 291 -37 325 -39 339 -26 10 11 21 63 33 154 10 76 20 155
23 175 4 26 1 41 -10 52 -19 19 -67 21 -82 3 -6 -7 -18 -68 -26 -136 -8 -68
-17 -126 -20 -128 -2 -2 -50 1 -106 8 l-102 12 6 46 c4 25 9 78 13 118 6 72 6
72 -21 83 -61 23 -73 6 -87 -122 -11 -100 -13 -108 -33 -108 -34 1 -148 18
-153 24 -3 3 0 62 7 132 13 121 13 127 -5 140 -21 15 -53 18 -72 6z"/>
<path d="M550 5620 c-140 -21 -277 -42 -305 -47 l-50 -8 -3 -46 c-5 -71 5 -74
150 -54 68 9 130 17 138 18 11 2 19 -24 32 -112 10 -66 22 -118 30 -123 14 -9
68 -1 82 13 6 5 3 51 -7 121 -9 62 -14 115 -9 119 8 7 181 33 186 28 2 -2 12
-58 22 -124 l19 -120 41 -3 c66 -5 67 2 39 187 -13 90 -29 169 -36 177 -16 19
-38 18 -329 -26z"/>
<path d="M11093 5288 c-57 -59 -87 -141 -91 -245 -4 -82 -1 -97 23 -152 62
-138 216 -219 394 -209 161 9 269 114 302 294 14 73 3 180 -20 203 -23 23
-299 87 -320 74 -10 -6 -28 -57 -46 -127 -34 -135 -31 -151 31 -151 l39 0 19
78 c15 63 21 77 35 73 9 -3 46 -13 84 -22 79 -19 87 -34 68 -119 -14 -63 -58
-128 -101 -150 -97 -50 -255 -27 -338 49 -92 83 -86 235 12 343 40 45 45 67
17 83 -37 19 -76 12 -108 -22z"/>
<path d="M608 5120 c-164 -37 -304 -70 -313 -73 -27 -11 -16 -102 14 -111 9
-3 162 27 339 67 233 53 326 78 333 89 6 10 4 31 -3 55 -11 32 -18 38 -43 40
-16 1 -164 -29 -327 -67z"/>
<path d="M10911 4641 c-21 -21 -54 -69 -72 -107 -32 -64 -34 -75 -34 -169 0
-85 4 -106 23 -143 64 -121 225 -212 373 -212 184 0 329 169 329 383 0 50 -4
78 -13 86 -27 22 -282 112 -303 107 -17 -5 -31 -30 -63 -112 -50 -130 -51
-147 -10 -164 43 -18 59 -6 88 71 13 35 25 66 27 68 1 2 38 -10 81 -27 l78
-30 -2 -47 c-2 -64 -39 -133 -91 -170 -115 -80 -325 -17 -394 119 -16 32 -19
52 -15 103 6 74 34 129 101 191 38 35 44 47 36 61 -24 46 -89 42 -139 -8z"/>
<path d="M980 4172 c-129 -60 -260 -120 -292 -134 -91 -42 -91 -43 -2 -233 68
-147 80 -165 101 -165 36 0 63 18 63 42 0 11 -23 70 -50 131 -28 61 -47 113
-43 118 4 4 47 25 95 47 l86 40 48 -104 c43 -93 51 -104 74 -104 31 1 60 22
60 44 0 9 -18 56 -40 105 -22 49 -40 93 -40 97 0 5 35 26 78 45 l77 36 57
-117 c31 -65 61 -121 67 -124 18 -12 81 21 81 42 0 29 -129 304 -152 325 -11
9 -23 17 -27 17 -3 0 -112 -49 -241 -108z"/>
<path d="M10693 4014 c-136 -50 -235 -262 -188 -403 21 -65 97 -150 174 -195
232 -136 406 -98 502 109 55 117 46 223 -26 317 -38 51 -140 122 -225 158 -70
29 -178 36 -237 14z m216 -145 c75 -34 145 -89 172 -133 13 -21 19 -50 19 -87
0 -101 -80 -189 -172 -189 -85 0 -247 88 -295 161 -37 57 -38 127 -1 190 32
55 46 67 95 85 49 17 103 9 182 -27z"/>
<path d="M1145 3654 c-148 -90 -274 -170 -280 -179 -11 -17 18 -80 42 -89 7
-3 109 52 226 123 116 71 213 128 215 127 1 -2 -57 -106 -129 -232 -72 -126
-136 -242 -142 -257 -13 -37 17 -105 51 -118 21 -8 46 3 176 82 83 51 211 128
284 172 142 86 152 98 116 152 -28 42 -16 47 -288 -119 -87 -53 -160 -95 -161
-94 -2 2 58 107 131 233 73 127 133 241 134 255 0 25 -33 89 -54 102 -6 4 -20
7 -31 7 -11 0 -141 -74 -290 -165z"/>
<path d="M10238 3348 c-20 -17 -48 -60 -48 -74 0 -21 547 -386 572 -382 16 2
47 38 100 113 42 61 85 124 95 142 17 32 17 33 -7 58 -43 46 -63 35 -132 -70
-44 -66 -68 -94 -79 -91 -9 2 -120 74 -247 160 -127 86 -232 156 -234 156 -2
0 -11 -6 -20 -12z"/>
<path d="M1677 3223 c-240 -371 -319 -504 -313 -526 3 -12 21 -37 39 -55 l35
-34 283 97 c156 53 308 105 338 115 29 10 57 24 62 31 9 16 -17 66 -43 83 -19
12 -27 9 -342 -103 -109 -40 -201 -69 -203 -67 -3 3 63 109 146 236 83 127
151 236 151 242 0 21 -51 78 -70 78 -14 0 -39 -30 -83 -97z"/>
<path d="M1920 2579 c-137 -127 -250 -235 -250 -240 0 -14 61 -79 74 -79 22 0
501 451 504 474 2 16 -7 32 -28 50 -17 14 -36 26 -41 26 -5 0 -121 -104 -259
-231z"/>
<path d="M2269 2543 c-115 -120 -384 -414 -387 -424 -4 -11 62 -79 76 -79 6 0
54 47 107 105 107 115 115 118 155 52 28 -45 26 -63 -25 -195 -25 -64 -45
-124 -45 -133 0 -25 55 -71 81 -67 19 2 29 22 66 122 25 66 47 140 50 165 l5
46 62 0 c48 0 68 5 94 23 98 71 119 174 54 271 -32 48 -186 191 -206 191 -7 0
-46 -35 -87 -77z m140 -103 c44 -37 71 -79 71 -108 0 -14 -15 -39 -34 -58 -48
-48 -88 -47 -155 7 -28 22 -51 43 -51 46 0 7 123 143 130 143 3 -1 20 -14 39
-30z"/>
<path d="M9480 2484 c-22 -20 -40 -46 -40 -57 0 -21 256 -645 271 -661 13 -15
59 5 81 35 l20 26 -36 83 c-43 96 -50 78 76 191 l76 70 86 -43 86 -42 27 20
c39 29 50 50 37 71 -9 15 -617 343 -636 343 -5 0 -26 -16 -48 -36z m343 -254
c5 -4 -22 -35 -60 -68 -37 -34 -70 -58 -74 -54 -5 5 -74 162 -107 241 -5 12
218 -98 241 -119z"/>
<path d="M9125 2184 c-104 -80 -194 -149 -199 -154 -14 -14 3 -59 29 -76 24
-16 27 -15 100 42 59 45 78 55 88 45 7 -6 87 -110 178 -229 105 -138 173 -218
186 -220 11 -2 34 10 53 28 39 37 54 10 -162 291 -87 114 -158 211 -158 217 0
6 32 33 70 62 41 30 70 59 70 70 0 21 -37 70 -53 70 -7 0 -97 -66 -202 -146z"/>
<path d="M2750 2171 c-105 -22 -223 -128 -286 -257 -35 -70 -39 -86 -39 -153
0 -58 6 -86 22 -116 31 -60 100 -122 173 -158 120 -59 229 -40 340 60 96 86
160 203 167 303 7 88 -20 151 -93 220 -86 81 -195 120 -284 101z m173 -147
c55 -38 90 -105 83 -158 -11 -92 -118 -241 -202 -281 -113 -54 -277 59 -259
179 14 93 120 240 200 278 56 26 124 19 178 -18z"/>
<path d="M8734 1915 c-23 -14 -44 -31 -47 -38 -5 -13 137 -689 149 -708 17
-29 104 16 104 54 0 12 -9 54 -19 94 l-19 72 92 57 c50 32 100 64 111 71 18
11 28 7 89 -42 38 -30 75 -55 84 -55 26 0 82 41 82 61 0 19 -31 46 -373 312
-104 81 -194 147 -200 147 -7 0 -31 -11 -53 -25z m234 -259 l72 -58 -81 -50
c-44 -28 -82 -48 -83 -46 -1 1 -15 59 -30 128 -16 68 -31 131 -34 140 -3 8 14
-1 39 -21 24 -19 77 -61 117 -93z"/>
<path d="M3308 1848 c-15 -12 -81 -130 -233 -413 -26 -49 -59 -109 -72 -132
l-25 -42 26 -26 c35 -35 80 -34 98 3 8 15 61 114 119 221 l104 194 5 -293 5
-292 35 -29 c49 -41 84 -39 114 9 56 88 297 547 294 561 -2 9 -20 25 -41 36
l-38 20 -19 -22 c-10 -13 -64 -108 -121 -213 -56 -105 -103 -189 -104 -188 -2
2 -5 126 -8 275 -5 299 -3 290 -68 324 -45 22 -50 23 -71 7z"/>
<path d="M8240 1632 c-95 -33 -228 -99 -239 -120 -9 -17 6 -55 93 -239 167
-352 184 -383 206 -383 38 0 225 97 277 144 113 102 130 237 51 405 -80 169
-233 245 -388 193z m160 -118 c65 -32 132 -139 150 -236 19 -100 -19 -164
-129 -222 l-71 -37 -81 168 c-98 202 -129 271 -129 282 0 11 95 52 140 61 41
8 85 2 120 -16z"/>
<path d="M3898 1538 c-25 -19 -244 -618 -234 -643 7 -19 84 -41 97 -28 11 11
51 116 126 328 25 72 49 134 54 140 5 5 9 -25 9 -71 0 -45 3 -170 7 -278 7
-217 6 -214 74 -231 25 -6 42 10 215 203 104 115 190 208 192 207 2 -2 -35
-110 -82 -240 -46 -130 -82 -243 -80 -250 6 -14 55 -35 84 -35 10 0 21 8 25
18 72 185 215 596 215 619 0 18 -10 28 -42 43 -61 28 -102 26 -136 -7 -16 -16
-98 -103 -182 -195 -84 -93 -155 -168 -160 -168 -4 0 -10 116 -14 258 -8 284
-9 291 -73 317 -58 24 -77 27 -95 13z"/>
<path d="M4738 1253 c-8 -10 -22 -54 -31 -98 -9 -44 -37 -176 -62 -293 -47
-221 -52 -266 -34 -278 15 -9 316 -74 344 -74 29 0 48 30 43 68 -3 26 -7 28
-133 55 -71 15 -131 30 -133 32 -4 4 36 196 42 202 2 2 44 -5 95 -17 120 -27
139 -26 147 4 3 13 4 34 2 47 -3 24 -2 24 -140 54 -89 19 -87 14 -62 125 15
65 19 71 38 66 11 -3 70 -16 130 -28 106 -22 108 -22 122 -3 22 30 18 74 -8
85 -24 10 -308 70 -332 70 -7 0 -20 -8 -28 -17z"/>
<path d="M6922 1203 c-20 -18 -19 -20 48 -339 37 -177 71 -327 74 -333 4 -6
20 -11 36 -11 31 0 306 56 321 66 16 9 10 70 -8 86 -16 14 -29 14 -132 -8 -63
-14 -115 -23 -117 -21 -2 2 -29 122 -59 268 -30 145 -57 274 -60 287 -4 18
-12 22 -44 22 -23 0 -47 -7 -59 -17z"/>
<path d="M5230 1156 c-6 -8 -15 -52 -20 -98 -4 -46 -18 -193 -31 -327 -23
-242 -23 -243 -4 -257 11 -8 35 -14 54 -12 44 4 44 6 66 258 25 284 18 278 99
93 162 -375 157 -364 193 -379 44 -19 77 -18 96 4 16 17 26 95 63 490 20 206
20 204 -50 200 -22 -2 -42 -9 -47 -18 -4 -8 -15 -107 -24 -220 -9 -113 -20
-213 -24 -224 -5 -13 -35 48 -110 223 -71 165 -112 248 -129 261 -30 24 -113
28 -132 6z"/>
<path d="M6491 1143 c-16 -14 -38 -87 -101 -347 -45 -181 -80 -338 -78 -350 2
-17 11 -22 44 -24 55 -4 66 9 89 106 21 92 12 86 145 97 41 3 87 8 102 11 25
5 30 -1 70 -78 41 -79 45 -83 80 -86 41 -3 78 12 78 32 0 16 -291 618 -309
640 -18 22 -93 21 -120 -1z m132 -285 l55 -117 -36 -5 c-94 -14 -152 -18 -152
-10 0 5 11 56 25 114 14 58 27 116 31 129 7 32 12 25 77 -111z"/>
<path d="M5905 1121 l-90 -6 0 -45 0 -45 101 -3 101 -3 5 -294 c2 -162 7 -297
11 -301 13 -13 98 -8 107 6 5 8 6 144 3 302 l-6 288 91 0 c69 0 94 4 106 16
18 18 20 47 6 75 -10 18 -22 19 -178 17 -92 -1 -207 -4 -257 -7z"/>
</g>
</svg>
